<?xml version="1.0" encoding="UTF-8" standalone="no"?>
<!-- Created with Inkscape (http://www.inkscape.org/) -->

<svg
   xmlns:dc="http://purl.org/dc/elements/1.1/"
   xmlns:cc="http://creativecommons.org/ns#"
   xmlns:rdf="http://www.w3.org/1999/02/22-rdf-syntax-ns#"
   xmlns:svg="http://www.w3.org/2000/svg"
   xmlns="http://www.w3.org/2000/svg"
   width="240"
   height="240"
   id="svg2"
   version="1.1">
  <g
     inkscape:groupmode="layer"
     id="layer5"
     inkscape:label="brazdy"
     style="display:inline"
     sodipodi:insensitive="true"
     transform="translate(0,-811.36218)">
    <path
       sodipodi:nodetypes="cssssscscsssssssssssccssssssssssscscsssssscsscsssssc"
       inkscape:connector-curvature="0"
       id="path3868"
       d="m 83.042603,873.46108 c -2.399643,0.92491 -5.18495,2.35159 -8.235278,4.17957 -3.050328,1.82798 -6.388637,4.04226 -9.938061,6.56347 -7.098849,5.04241 -15.034067,11.27666 -23.21977,17.83282 -8.185703,6.55617 -16.615024,13.45414 -24.674875,19.84521 -4.029926,3.19554 -7.9626435,6.26269 -11.7337237,9.10217 -1.1075079,0.83392 -2.0811634,1.46858 -3.1578886,2.26007 0.3203477,65.38494 53.3941803,118.29721 118.8542633,118.29721 63.94621,0 115.9608,-50.5202 118.63754,-113.80805 -1.09458,-0.82649 -2.35535,-1.56522 -3.86996,-2.2291 -1.67483,-0.7341 -3.56939,-1.398 -5.69658,-2.04334 -2.1272,-0.64534 -4.48163,-1.27828 -6.9969,-1.95047 -3.70455,-0.99003 -7.79328,-1.94647 -12.16715,-2.75542 -4.37388,-0.80894 -9.03218,-1.47279 -13.86995,-1.95046 -4.83776,-0.47768 -9.85732,-0.74683 -14.95353,-0.74304 -5.09621,0.004 -10.26872,0.26237 -15.41793,0.89784 -4.70738,0.58093 -9.37547,1.18051 -13.96282,1.95046 -4.58734,0.76995 -9.09521,1.7363 -13.40554,3.0031 -2.15517,0.63339 -4.2593,1.32089 -6.31578,2.13622 -2.05648,0.81533 -4.06801,1.75065 -6.00618,2.78638 -1.93818,1.03573 -3.80346,2.17287 -5.60371,3.46749 l 0.48175,-0.84443 c 1.80025,-1.29462 3.18378,-1.58733 5.12196,-2.62306 1.93817,-1.03573 3.9497,-1.97105 6.00618,-2.78638 2.05648,-0.81533 4.16061,-1.50283 6.31578,-2.13622 4.31033,-1.2668 8.8182,-2.23315 13.40554,-3.0031 4.58735,-0.76995 9.25544,-1.36953 13.96282,-1.95046 5.14921,-0.63547 10.32172,-0.89404 15.41793,-0.89784 5.09621,-0.004 10.11577,0.26536 14.95353,0.74304 4.83777,0.47767 9.49607,1.14152 13.86995,1.95046 4.37387,0.80895 8.4626,1.76539 12.16715,2.75542 2.51527,0.67219 4.8697,1.30513 6.9969,1.95047 2.12719,0.64534 4.02175,1.30924 5.69658,2.04334 1.51461,0.66388 2.77538,1.40261 3.86996,2.2291 0.0717,-1.69465 0.24768,-3.36511 0.24768,-5.0774 0,-9.77962 -1.30254,-19.20401 -3.52941,-28.29722 -0.39325,-0.31553 -0.70921,-0.64862 -1.11455,-0.95976 -2.52832,-1.94068 -5.2944,-3.76114 -8.35911,-5.41796 -1.53235,-0.82841 -3.14191,-1.63208 -4.82972,-2.35294 -1.6878,-0.72086 -3.46758,-1.36152 -5.32506,-1.95046 -2.32143,-0.73604 -5.99089,-1.5897 -10.49534,-2.47678 -4.50445,-0.88709 -9.83357,-1.80507 -15.44889,-2.72446 -11.23063,-1.8388 -23.60712,-3.63594 -32.84823,-4.89165 -2.031,0.0509 -4.23969,0.37127 -6.68729,0.86688 -2.4476,0.4956 -5.13073,1.17149 -8.08048,1.98142 -5.89949,1.61989 -12.87889,3.72533 -21.30027,5.82044 -3.0464,-1.9109 -6.11198,-4.04304 -9.19503,-6.161 -3.08305,-2.11795 -6.19503,-4.22859 -9.38079,-6.09907 -1.59288,-0.93524 -3.19876,-1.78152 -4.829709,-2.56966 -1.630948,-0.78814 -3.276278,-1.49007 -4.953551,-2.0743 -1.677273,-0.58424 -3.407451,-1.06969 -5.139309,-1.39319 -1.731857,-0.32351 -3.468447,-0.48941 -5.263148,-0.49536 z"
       style="fill:#f9f9f9;fill-opacity:0.99215686;stroke:#000000;stroke-width:2.22910047;stroke-miterlimit:4;stroke-opacity:1;stroke-dasharray:none" />
    <g
       style="stroke-width:2.25;stroke-miterlimit:4;stroke-dasharray:none"
       id="g3885"
       transform="matrix(0.99071017,0,0,0.99071249,1.9901276,7.7950828)">
      <g
         id="g3880" />
      <g
         id="g3899">
        <path
           inkscape:connector-curvature="0"
           id="path3896"
           d="m 120.0625,813.53125 c -66.27417,0 -120,53.72583 -120,120 0,0.20027 0.0302699,0.39371 0.03125,0.59375 1.0868216,-0.79891 2.069607,-1.43952 3.1875,-2.28125 3.8064413,-2.8661 7.776036,-5.96201 11.84375,-9.1875 8.135428,-6.45099 16.64379,-13.41362 24.90625,-20.03125 8.26246,-6.61763 16.272086,-12.91032 23.4375,-18 3.582707,-2.54484 6.952319,-4.77988 10.03125,-6.625 3.078931,-1.84512 5.890355,-3.28517 8.3125,-4.21875 1.811529,0.006 3.564403,0.17346 5.3125,0.5 1.748097,0.32654 3.494499,0.81654 5.1875,1.40625 1.693001,0.58971 3.353759,1.29822 5,2.09375 1.646241,0.79553 3.26718,1.64974 4.875,2.59375 3.21563,1.88801 6.35679,4.01844 9.46875,6.15625 3.11196,2.13781 6.20629,4.28994 9.28125,6.21875 8.50035,-2.11475 15.54519,-4.23993 21.5,-5.875 2.97741,-0.81753 5.6857,-1.49975 8.15625,-2 2.47055,-0.50025 4.69995,-0.8236 6.75,-0.875 9.32776,1.26748 21.82031,3.08147 33.15625,4.9375 5.66797,0.92801 11.04706,1.8546 15.59375,2.75 4.54669,0.8954 8.25055,1.75706 10.59375,2.5 1.8749,0.59446 3.67137,1.24113 5.375,1.96875 1.70363,0.72762 3.32828,1.53882 4.875,2.375 3.09345,1.67235 5.88547,3.50987 8.4375,5.46875 0.40914,0.31405 0.72806,0.65027 1.125,0.96875 -12.84326,-52.44413 -60.03463,-91.4375 -116.4375,-91.4375 z"
           style="fill:#f9f9f9;fill-opacity:0.99215686;stroke:#000000;stroke-width:2.25;stroke-miterlimit:4;stroke-opacity:1;stroke-dasharray:none" />
        <path
           sodipodi:nodetypes="cc"
           inkscape:connector-curvature="0"
           id="path3937"
           d="m 60.725037,984.65024 c 1.281002,-15.84074 15.395935,-33.52983 27.32166,-38.5411"
           style="fill:none;stroke:#000000;stroke-width:2.25;stroke-linecap:butt;stroke-linejoin:miter;stroke-miterlimit:4;stroke-opacity:1;stroke-dasharray:none" />
        <path
           sodipodi:nodetypes="ccc"
           inkscape:connector-curvature="0"
           id="path3828"
           d="M 0.29631585,934.67827 C 11.598993,925.06633 38.701,926.60748 57.839522,926.16705 c 13.337261,0.15544 54.753718,7.11893 63.084238,14.43696"
           style="fill:#ffffff;fill-opacity:1;stroke:#000000;stroke-width:2.24702621;stroke-linecap:butt;stroke-linejoin:miter;stroke-miterlimit:4;stroke-opacity:1;stroke-dasharray:none" />
        <path
           style="fill:none;stroke:#000000;stroke-width:2.25;stroke-linecap:butt;stroke-linejoin:miter;stroke-miterlimit:4;stroke-opacity:1;stroke-dasharray:none"
           d="m 28.609946,983.47377 c 1.48774,-17.65304 19.88065,-39.36589 33.73104,-44.95048"
           id="path3167"
           inkscape:connector-curvature="0"
           sodipodi:nodetypes="cc" />
        <path
           sodipodi:nodetypes="cc"
           inkscape:connector-curvature="0"
           id="path3951"
           d="m 148.17083,980.35268 c 1.48774,-17.65304 17.88065,-37.36589 31.73104,-42.95048"
           style="fill:none;stroke:#000000;stroke-width:2.25;stroke-linecap:butt;stroke-linejoin:miter;stroke-miterlimit:4;stroke-opacity:1;stroke-dasharray:none" />
        <path
           style="fill:none;stroke:#000000;stroke-width:2.25;stroke-linecap:butt;stroke-linejoin:miter;stroke-miterlimit:4;stroke-opacity:1;stroke-dasharray:none"
           d="m 180.28592,983.52915 c 1.281,-15.84074 15.39593,-33.52983 27.32166,-38.5411"
           id="path3953"
           inkscape:connector-curvature="0"
           sodipodi:nodetypes="cc" />
      </g>
    </g>
    <path
       style="fill:#000000;fill-opacity:0;stroke:#000000;stroke-width:2.25957561;stroke-miterlimit:4;stroke-opacity:0.88235294;stroke-dasharray:none"
       d="m 186.1215,1031.9518 c -0.14667,-0.2761 -0.2597,-0.5697 -0.40979,-0.8436 -1.13811,-2.0766 -2.39099,-4.0811 -3.71957,-6.0303 -1.32858,-1.9491 -2.74877,-3.8456 -4.25542,-5.6552 -1.50666,-1.8096 -3.08745,-3.5291 -4.75979,-5.1868 -1.67234,-1.6575 -3.4385,-3.2245 -5.26413,-4.7179 -1.82565,-1.4934 -3.70737,-2.9011 -5.67392,-4.2181 -1.96655,-1.3168 -4.02015,-2.5588 -6.11521,-3.6868 -2.09507,-1.1283 -4.25074,-2.16621 -6.46196,-3.09335 -2.21121,-0.927 -4.46221,-1.7546 -6.77718,-2.46828 -2.31496,-0.71372 -4.68604,-1.2929 -7.09238,-1.78097 -2.40633,-0.48808 -4.85927,-0.87463 -7.34456,-1.12482 -2.4853,-0.25017 -5.01332,-0.37494 -7.56522,-0.37494 -2.55191,0 -5.04839,0.12477 -7.53369,0.37494 -2.48532,0.25019 -4.93823,0.63674 -7.34457,1.12482 -2.40633,0.48807 -4.77743,1.06725 -7.092395,1.78097 -2.31497,0.71368 -4.597487,1.54128 -6.808699,2.46828 -2.211211,0.92714 -4.366885,1.96505 -6.461955,3.09335 -2.095072,1.128 -4.117143,2.37 -6.083695,3.6868 -1.966554,1.317 -3.879797,2.7247 -5.705435,4.2181 -1.825639,1.4934 -3.560272,3.0604 -5.232608,4.7179 -1.672337,1.6577 -3.253135,3.3772 -4.759784,5.1868 -1.506648,1.8096 -2.92686,3.7061 -4.255434,5.6552 -1.328572,1.9492 -2.581453,3.9537 -3.719564,6.0303 -0.100598,0.1836 -0.184632,0.3779 -0.283697,0.5623 18.886464,12.1786 41.386196,19.3095 65.596756,19.3095 24.01149,0 46.33319,-7.0332 65.1239,-19.0282 z"
       id="path3977"
       inkscape:connector-curvature="0" />
  </g>
  <g
     inkscape:groupmode="layer"
     id="layer3"
     inkscape:label="netopier"
     sodipodi:insensitive="true"
     transform="translate(0,-811.36218)">
    <g
       id="g3985"
       transform="matrix(0.90409538,0,0,1.4613244,-122.67349,-416.7161)">
      <path
         sodipodi:nodetypes="cscscssscscc"
         inkscape:connector-curvature="0"
         id="path3946"
         d="m 278.10578,977.48252 c -1.55289,-0.0691 -4.81555,2.76423 -6.82586,2.76423 -2.1285,0 -6.02659,-3.54121 -7.2112,-2.51905 -0.81183,0.70043 0.71562,2.78042 0.71562,3.72284 0,1.28817 0.89776,2.44037 2.31198,3.21008 -0.74047,0.88291 -0.34962,2.07676 -0.34962,3.28431 0,2.87355 1.55156,5.01988 4.63428,5.01988 3.08271,0 4.75341,-2.14633 4.75341,-5.01988 0,-1.28745 0.4353,-2.5542 -0.39565,-3.46265 1.24852,-0.76471 2.03675,-1.83253 2.03675,-3.03174 0,-0.83313 1.52893,-3.09232 0.88076,-3.74509 -0.14434,-0.14539 -0.32863,-0.21309 -0.55047,-0.22293 z"
         style="fill:#000000;fill-opacity:1;stroke:#000000;stroke-width:0;stroke-miterlimit:4;stroke-opacity:0.88235294;stroke-dasharray:none" />
      <path
         sodipodi:nodetypes="cssscsc"
         inkscape:connector-curvature="0"
         id="path3956"
         d="m 269.67139,984.82976 c 0,2.178 -6.05206,5.31579 -12.2712,5.81203 -1.08912,0.0873 -0.26699,2.37863 -1.43838,2.37863 -1.10091,0 -1.91122,-2.28627 -2.94032,-2.36337 -6.31849,-0.47289 -11.81478,-3.62633 -11.81478,-5.82729 1.9888,-0.34755 3.8405,0.82258 9.75916,0.81997 7.30934,0 18.69367,-1.1071 18.70552,-0.81997 z"
         style="fill:#000000;fill-opacity:1;stroke:#000000;stroke-width:0;stroke-miterlimit:4;stroke-opacity:0.88235294" />
      <path
         sodipodi:nodetypes="cssscsc"
         inkscape:connector-curvature="0"
         id="path3965"
         d="m 274.79617,984.6956 c 0,2.25102 6.05207,5.49401 12.2712,6.00676 1.08913,0.0901 0.52838,2.31806 1.69977,2.31806 1.10092,0 1.64983,-2.22267 2.67893,-2.30226 6.31849,-0.48892 11.81478,-3.74783 11.81478,-6.02256 -1.9888,-0.35939 -3.8405,0.85007 -9.75915,0.84735 -7.30935,0 -18.69367,-1.14412 -18.70553,-0.84735 z"
         style="fill:#000000;fill-opacity:1;stroke:#000000;stroke-width:0;stroke-miterlimit:4;stroke-opacity:0.88235294" />
    </g>
  </g>
</svg>
